<svg width="24" height="24" viewBox="0 0 24 24" fill="none" xmlns="http://www.w3.org/2000/svg">
<g opacity="0.8">
<path d="M17 2H7.00004C4.23861 2 2.00004 4.23858 2.00004 7V17C2.00004 19.7614 4.23861 22 7.00004 22H17C19.7615 22 22 19.7614 22 17V7C22 4.23858 19.7615 2 17 2Z" stroke="black" stroke-width="1.5" stroke-linecap="round" stroke-linejoin="round"/>
<path d="M16 11.3699C16.1234 12.2022 15.9812 13.0522 15.5937 13.799C15.2062 14.5457 14.5931 15.1513 13.8416 15.5296C13.0901 15.9079 12.2384 16.0395 11.4078 15.9059C10.5771 15.7722 9.80975 15.38 9.21483 14.7851C8.61991 14.1902 8.22772 13.4228 8.09406 12.5921C7.96039 11.7615 8.09205 10.9098 8.47032 10.1583C8.84858 9.40679 9.45418 8.79368 10.201 8.40618C10.9478 8.01868 11.7977 7.87652 12.63 7.99994C13.4789 8.12582 14.2648 8.5214 14.8717 9.12824C15.4785 9.73508 15.8741 10.521 16 11.3699Z" stroke="black" stroke-width="1.5" stroke-linecap="round" stroke-linejoin="round"/>
<path d="M17.5003 6.5H17.5103" stroke="black" stroke-width="2.5" stroke-linecap="round" stroke-linejoin="round"/>
</g>
</svg>
